<svg width="441" height="429" viewBox="0 0 441 429" fill="none" xmlns="http://www.w3.org/2000/svg">
<mask id="mask0_476_23" style="mask-type:luminance" maskUnits="userSpaceOnUse" x="0" y="0" width="441" height="429">
<path d="M0 0H441V428.052H0V0Z" fill="white"/>
</mask>
<g mask="url(#mask0_476_23)">
<path fill-rule="evenodd" clip-rule="evenodd" d="M210.823 349.927C160.005 344.104 124.292 313.594 100.849 263.271C96.4427 418.021 264.63 477 369.885 380.75C413.62 340.646 441 283.083 441 219.078C441 214.672 441 210.271 440.682 205.865L217.115 205.078L217.432 238.104L342.667 237.792C336.688 314.224 286.182 358.417 210.823 349.927ZM131.214 424.625C53.4896 351.495 47.5677 238.26 124.5 158.37C156.443 125.182 189.583 103.484 242.76 104.74C154.339 29.0938 0 89.9583 0 223.953C0 313.594 53.9635 390.812 131.214 424.625ZM84.9583 48.125C180.927 17.4583 280.047 46.5521 326.302 159.943L432.5 158.37C406.229 66.9948 321.896 0 221.995 0C170.073 0 122.401 17.9271 84.9583 48.125Z" fill="#FF6551"/>
</g>
</svg>
